<?xml version="1.0" standalone="no"?>
<!DOCTYPE svg PUBLIC "-//W3C//DTD SVG 20010904//EN"
 "http://www.w3.org/TR/2001/REC-SVG-20010904/DTD/svg10.dtd">
<svg version="1.0" xmlns="http://www.w3.org/2000/svg"
 width="512.000000pt" height="512.000000pt" viewBox="0 0 512.000000 512.000000"
 preserveAspectRatio="xMidYMid meet">

<g transform="translate(0.000000,512.000000) scale(0.100000,-0.100000)"
fill="#000000" stroke="none">
<path d="M2241 5106 c-49 -27 -50 -37 -51 -409 0 -282 3 -353 14 -376 35 -66
137 -66 172 0 19 37 21 703 2 744 -22 48 -88 68 -137 41z"/>
<path d="M1441 5006 c-29 -16 -50 -52 -51 -86 0 -13 73 -159 163 -323 165
-304 181 -327 236 -327 53 0 101 49 101 102 0 12 -73 157 -162 321 -168 308
-182 328 -240 327 -13 -1 -34 -7 -47 -14z"/>
<path d="M3040 5006 c-29 -17 -350 -597 -350 -634 0 -53 48 -102 101 -102 55
0 71 23 237 327 89 164 162 308 162 320 0 78 -82 126 -150 89z"/>
<path d="M3967 4639 c-107 -25 -101 -20 -1069 -992 l-928 -932 -48 52 c-73 76
-172 281 -242 498 -55 170 -172 356 -286 451 -158 131 -334 212 -485 221 -103
7 -146 -5 -202 -56 -51 -46 -67 -85 -67 -163 0 -57 6 -76 82 -233 247 -518
358 -879 358 -1172 0 -107 10 -136 57 -158 42 -20 82 -13 114 21 77 82 -6 597
-153 959 -23 55 -88 201 -145 325 -57 123 -107 236 -110 251 -7 34 14 42 75
29 141 -31 286 -114 388 -221 99 -105 140 -184 229 -439 104 -298 234 -489
382 -562 62 -30 67 -31 103 -17 29 11 260 238 975 959 515 520 952 953 972
964 82 45 183 27 247 -44 58 -64 69 -147 29 -225 -9 -16 -308 -325 -665 -687
-615 -622 -648 -658 -648 -692 0 -54 45 -101 98 -101 37 0 48 7 120 78 89 86
133 110 209 110 120 0 202 -114 173 -241 -10 -46 -23 -65 -90 -136 -43 -46
-81 -93 -85 -105 -19 -61 27 -131 87 -131 41 0 76 21 133 80 65 67 129 100
196 100 104 0 169 -63 177 -169 5 -75 -15 -115 -102 -201 -78 -76 -94 -112
-72 -163 27 -65 102 -78 165 -28 58 45 96 61 151 61 115 0 190 -78 190 -197 0
-33 -8 -74 -18 -95 -10 -23 -249 -271 -616 -643 -639 -646 -675 -679 -829
-739 -252 -100 -547 -60 -766 103 -36 27 -188 173 -337 323 -334 336 -381 402
-439 622 -19 71 -31 96 -52 113 -50 40 -129 22 -152 -36 -29 -70 57 -315 172
-486 22 -33 175 -196 341 -363 377 -380 458 -438 696 -499 293 -75 612 -11
847 170 32 24 333 321 668 659 717 722 680 675 680 868 0 104 -3 121 -27 172
-50 107 -150 191 -261 219 l-48 12 7 41 c4 22 7 70 6 105 -4 171 -151 324
-339 353 l-69 11 -11 68 c-6 38 -23 95 -39 126 -34 72 -123 160 -192 192 l-53
25 313 315 c683 688 674 678 699 819 27 151 -57 326 -196 407 -80 48 -205 66
-298 44z"/>
<path d="M1078 1867 c-35 -32 -44 -77 -23 -116 49 -96 185 -63 185 44 0 81
-103 126 -162 72z"/>
</g>
</svg>
